<svg width="30" height="30" viewBox="0 0 30 30" fill="none" xmlns="http://www.w3.org/2000/svg">
<g id="books 1" clip-path="url(#clip0_1804_1634)">
<g id="Clip path group">
<mask id="mask0_1804_1634" style="mask-type:luminance" maskUnits="userSpaceOnUse" x="0" y="0" width="30" height="30">
<g id="a">
<path id="Vector" d="M0 0H29.5V29.5H0V0Z" fill="white"/>
</g>
</mask>
<g mask="url(#mask0_1804_1634)">
<g id="Group">
<path id="Vector_2" d="M12.4202 24.8421C12.4202 26.557 11.8062 27.9474 10.0913 27.9474H4.65707C1.55181 27.9474 1.55181 17.079 4.65707 17.079H10.0913C11.8062 17.079 12.4202 18.4693 12.4202 20.1842V24.8421Z" fill="#553788"/>
<path id="Vector_3" d="M27.1676 26.3948H26.3912V18.6316H27.1676C27.3734 18.6316 27.5709 18.5498 27.7165 18.4042C27.8621 18.2586 27.9439 18.0612 27.9439 17.8553C27.9439 17.6494 27.8621 17.4519 27.7165 17.3063C27.5709 17.1608 27.3734 17.079 27.1676 17.079H8.53598C5.43072 17.079 5.43072 27.9474 8.53598 27.9474H27.1676C27.3734 27.9474 27.5709 27.8656 27.7165 27.72C27.8621 27.5744 27.9439 27.377 27.9439 27.1711C27.9439 26.9652 27.8621 26.7677 27.7165 26.6221C27.5709 26.4765 27.3734 26.3948 27.1676 26.3948Z" fill="#9266CC"/>
<path id="Vector_4" d="M27.3017 26.3948H9.31291C7.76028 26.3948 7.76028 18.6316 9.31291 18.6316H27.3017C28.1588 18.6316 28.1588 26.3948 27.3017 26.3948Z" fill="#CCD6DD"/>
<path id="Vector_5" d="M9.70047 20.1842H27.8274C27.7226 19.272 27.5472 18.6315 27.3011 18.6315H9.31232C8.03062 18.6315 7.80782 23.9167 8.64236 25.7635C8.33804 23.4672 8.69049 20.1842 9.70047 20.1842Z" fill="#99AAB5"/>
<path id="Vector_6" d="M10.0903 6.9869C10.0903 7.81047 9.76309 8.6003 9.18075 9.18265C8.5984 9.765 7.80856 10.0922 6.98499 10.0922H3.87973C0.774465 10.0922 0.774465 1.55269 3.87973 1.55269H6.98499C7.80856 1.55269 8.5984 1.87985 9.18075 2.4622C9.76309 3.04455 10.0903 3.83438 10.0903 4.65795V6.9869Z" fill="#226699"/>
<path id="Vector_7" d="M24.8394 8.53953H24.0631V3.10532H24.8394C25.0453 3.10532 25.2428 3.02353 25.3884 2.87794C25.534 2.73236 25.6157 2.5349 25.6157 2.329C25.6157 2.12311 25.534 1.92565 25.3884 1.78007C25.2428 1.63448 25.0453 1.55269 24.8394 1.55269H6.20785C3.10259 1.55269 3.10259 10.0922 6.20785 10.0922H24.8394C25.0453 10.0922 25.2428 10.0104 25.3884 9.86479C25.534 9.7192 25.6157 9.52174 25.6157 9.31585C25.6157 9.10996 25.534 8.9125 25.3884 8.76691C25.2428 8.62132 25.0453 8.53953 24.8394 8.53953Z" fill="#55ACEE"/>
<path id="Vector_8" d="M24.9736 8.53955H6.98479C5.43215 8.53955 5.43215 3.10534 6.98479 3.10534H24.9736C25.8306 3.10534 25.8306 8.53955 24.9736 8.53955Z" fill="#CCD6DD"/>
<path id="Vector_9" d="M6.98447 4.65797H25.5578C25.4693 3.78461 25.2752 3.10533 24.9733 3.10533H6.98447C6.05833 3.10533 5.6888 5.03758 5.86813 6.59875C5.98923 5.54452 6.35798 4.65797 6.98447 4.65797Z" fill="#99AAB5"/>
<path id="Vector_10" d="M16.2989 13.9737C16.2989 14.7973 15.9718 15.5871 15.3894 16.1695C14.8071 16.7518 14.0172 17.079 13.1937 17.079H5.43051C2.32525 17.079 2.32525 10.0921 5.43051 10.0921H13.1937C14.0172 10.0921 14.8071 10.4193 15.3894 11.0016C15.9718 11.584 16.2989 12.3738 16.2989 13.1974V13.9737Z" fill="#F4900C"/>
<path id="Vector_11" d="M27.9451 15.5263H27.1688V11.6448H27.9451C28.151 11.6448 28.3485 11.563 28.494 11.4174C28.6396 11.2718 28.7214 11.0743 28.7214 10.8685C28.7214 10.6626 28.6396 10.4651 28.494 10.3195C28.3485 10.1739 28.151 10.0921 27.9451 10.0921H12.4188C9.31353 10.0921 9.31353 17.079 12.4188 17.079H27.9451C28.151 17.079 28.3485 16.9972 28.494 16.8516C28.6396 16.706 28.7214 16.5086 28.7214 16.3027C28.7214 16.0968 28.6396 15.8993 28.494 15.7537C28.3485 15.6081 28.151 15.5263 27.9451 15.5263Z" fill="#FFAC33"/>
<path id="Vector_12" d="M28.0792 15.5264H13.1957C11.6431 15.5264 11.6431 11.6448 13.1957 11.6448H28.0792C28.9363 11.6448 28.9363 15.5264 28.0792 15.5264Z" fill="#CCD6DD"/>
<path id="Vector_13" d="M13.1969 13.1973H28.7108C28.6611 12.3729 28.4515 11.6447 28.0804 11.6447H13.1969C12.2079 11.6447 11.8516 13.2183 12.1233 14.3618C12.277 13.7105 12.6333 13.1973 13.1969 13.1973Z" fill="#99AAB5"/>
</g>
</g>
</g>
</g>
<defs>
<clipPath id="clip0_1804_1634">
<rect width="29.5" height="29.5" fill="white"/>
</clipPath>
</defs>
</svg>
