<svg width="21" height="22" viewBox="0 0 21 22" fill="none" xmlns="http://www.w3.org/2000/svg">
<circle cx="10.5" cy="11.2205" r="10.5" fill="#FF2DA4"/>
<path d="M7.47642 11.1675C7.47642 9.79146 7.70042 8.71946 8.14842 7.95146C8.59642 7.17546 9.38042 6.78746 10.5004 6.78746C11.6124 6.78746 12.3924 7.17546 12.8404 7.95146C13.2884 8.71946 13.5124 9.79146 13.5124 11.1675C13.5124 12.5675 13.2884 13.6555 12.8404 14.4315C12.3924 15.2075 11.6124 15.5955 10.5004 15.5955C9.38042 15.5955 8.59642 15.2075 8.14842 14.4315C7.70042 13.6555 7.47642 12.5675 7.47642 11.1675ZM12.4324 11.1675C12.4324 10.4715 12.3844 9.88346 12.2884 9.40346C12.2004 8.91546 12.0124 8.52346 11.7244 8.22746C11.4444 7.93146 11.0364 7.78346 10.5004 7.78346C9.95642 7.78346 9.54042 7.93146 9.25242 8.22746C8.97242 8.52346 8.78442 8.91546 8.68842 9.40346C8.60042 9.88346 8.55642 10.4715 8.55642 11.1675C8.55642 11.8875 8.60042 12.4915 8.68842 12.9795C8.78442 13.4675 8.97242 13.8595 9.25242 14.1555C9.54042 14.4515 9.95642 14.5995 10.5004 14.5995C11.0364 14.5995 11.4444 14.4515 11.7244 14.1555C12.0124 13.8595 12.2004 13.4675 12.2884 12.9795C12.3844 12.4915 12.4324 11.8875 12.4324 11.1675Z" fill="white"/>
</svg>
