<svg width="14" height="14" viewBox="0 0 14 14" fill="none" xmlns="http://www.w3.org/2000/svg">
<g id="Check">
<rect id="Bg" x="0.5" y="0.5" width="13" height="13" rx="3.5" fill="#FF2DA4" stroke="#FF2DA4"/>
<g id="Group 1000002441">
<path id="Vector" d="M10.1241 4.52587L10.124 4.52593L7.65007 6.99989L10.124 9.47384L10.1241 9.47391C10.2105 9.5604 10.259 9.67766 10.2589 9.7999C10.2589 9.92214 10.2103 10.0394 10.1239 10.1258C10.0374 10.2122 9.92022 10.2608 9.79798 10.2609C9.67574 10.2609 9.55848 10.2124 9.47199 10.126L9.47192 10.1259L6.99797 7.65199L4.52408 10.1259C4.52406 10.1259 4.52404 10.1259 4.52401 10.1259C4.48122 10.1688 4.43041 10.2028 4.37448 10.226C4.31853 10.2492 4.25855 10.2611 4.19797 10.2611C4.13739 10.2612 4.0774 10.2492 4.02143 10.2261C3.96547 10.2029 3.91461 10.1689 3.87177 10.1261M10.1241 4.52587L3.87177 10.1261C3.87177 10.1261 3.87177 10.1261 3.87177 10.1261M10.1241 4.52587C10.2105 4.43937 10.259 4.32212 10.2589 4.19988C10.2589 4.07763 10.2103 3.96041 10.1239 3.87397C10.0374 3.78753 9.92022 3.73895 9.79798 3.73892C9.67574 3.73888 9.55848 3.78738 9.47199 3.87377L9.47192 3.87383L6.99797 6.34779M10.1241 4.52587L6.99797 6.34779M3.87177 10.1261C3.82894 10.0832 3.79496 10.0324 3.77179 9.97642C3.74862 9.92045 3.7367 9.86046 3.73672 9.79989C3.73674 9.73931 3.74869 9.67933 3.7719 9.62337C3.7951 9.56745 3.82908 9.51664 3.87191 9.47384C3.87193 9.47382 3.87196 9.4738 3.87198 9.47378L6.34587 6.99989L3.87191 4.52593L3.87184 4.52587C3.78546 4.43937 3.73696 4.32212 3.73699 4.19988C3.73703 4.07763 3.78561 3.96041 3.87205 3.87397C3.95849 3.78753 4.07571 3.73895 4.19796 3.73892C4.3202 3.73888 4.43745 3.78738 4.52395 3.87377L4.52401 3.87383L6.99797 6.34779M3.87177 10.1261L6.99797 6.34779" fill="white" stroke="white" stroke-width="0.3"/>
</g>
</g>
</svg>
