<svg width="20" height="20" viewBox="0 0 20 20" fill="none" xmlns="http://www.w3.org/2000/svg">
<g id="favorite_border" clip-path="url(#clip0_169_619)">
<path id="Vector" d="M16.3832 3.32506C14.1832 1.82506 11.4665 2.52506 9.99985 4.24172C8.53319 2.52506 5.81652 1.81672 3.61652 3.32506C2.44985 4.12506 1.71652 5.47506 1.66652 6.90006C1.54985 10.1334 4.41652 12.7251 8.79152 16.7001L8.87485 16.7751C9.50819 17.3501 10.4832 17.3501 11.1165 16.7667L11.2082 16.6834C15.5832 12.7167 18.4415 10.1251 18.3332 6.89172C18.2832 5.47506 17.5499 4.12506 16.3832 3.32506ZM10.0832 15.4584L9.99985 15.5417L9.91652 15.4584C5.94985 11.8667 3.33319 9.49172 3.33319 7.08339C3.33319 5.41672 4.58319 4.16672 6.24985 4.16672C7.53319 4.16672 8.78319 4.99172 9.22485 6.13339H10.7832C11.2165 4.99172 12.4665 4.16672 13.7499 4.16672C15.4165 4.16672 16.6665 5.41672 16.6665 7.08339C16.6665 9.49172 14.0499 11.8667 10.0832 15.4584Z" fill="#323232"/>
</g>
<defs>
<clipPath id="clip0_169_619">
<rect width="20" height="20" fill="white"/>
</clipPath>
</defs>
</svg>
