<svg width="18" height="18" viewBox="0 0 18 18" fill="none" xmlns="http://www.w3.org/2000/svg">
<g id="favorite_border" clip-path="url(#clip0_738_593)">
<path id="Vector" d="M14.7452 2.9925C12.7652 1.6425 10.3202 2.2725 9.00016 3.8175C7.68016 2.2725 5.23516 1.635 3.25516 2.9925C2.20516 3.7125 1.54516 4.9275 1.50016 6.21C1.39516 9.12 3.97516 11.4525 7.91266 15.03L7.98766 15.0975C8.55766 15.615 9.43516 15.615 10.0052 15.09L10.0877 15.015C14.0252 11.445 16.5977 9.1125 16.5002 6.2025C16.4552 4.9275 15.7952 3.7125 14.7452 2.9925ZM9.07516 13.9125L9.00016 13.9875L8.92516 13.9125C5.35516 10.68 3.00016 8.5425 3.00016 6.375C3.00016 4.875 4.12516 3.75 5.62516 3.75C6.78016 3.75 7.90516 4.4925 8.30266 5.52H9.70516C10.0952 4.4925 11.2202 3.75 12.3752 3.75C13.8752 3.75 15.0002 4.875 15.0002 6.375C15.0002 8.5425 12.6452 10.68 9.07516 13.9125Z" fill="black" fill-opacity="0.5"/>
</g>
<defs>
<clipPath id="clip0_738_593">
<rect width="18" height="18" fill="white"/>
</clipPath>
</defs>
</svg>
