<svg width="48" height="48" viewBox="0 0 48 48" fill="none" xmlns="http://www.w3.org/2000/svg">
<g id="Social Icon / Instagram">
<path id="Exclude" fill-rule="evenodd" clip-rule="evenodd" d="M24.0004 11.2C20.5241 11.2 20.0878 11.2152 18.7225 11.2773C17.3598 11.3397 16.4297 11.5554 15.6158 11.872C14.7739 12.1989 14.0598 12.6362 13.3483 13.348C12.6363 14.0594 12.199 14.7736 11.871 15.6152C11.5536 16.4293 11.3376 17.3597 11.2763 18.7219C11.2152 20.0872 11.1992 20.5238 11.1992 24.0001C11.1992 27.4764 11.2147 27.9113 11.2766 29.2767C11.3392 30.6394 11.555 31.5695 11.8712 32.3834C12.1984 33.2252 12.6358 33.9394 13.3475 34.6509C14.0587 35.3629 14.7729 35.8013 15.6142 36.1282C16.4286 36.4447 17.359 36.6605 18.7214 36.7229C20.0868 36.785 20.5228 36.8002 23.9988 36.8002C27.4754 36.8002 27.9103 36.785 29.2757 36.7229C30.6384 36.6605 31.5696 36.4447 32.384 36.1282C33.2256 35.8013 33.9387 35.3629 34.6499 34.6509C35.3619 33.9394 35.7992 33.2252 36.1272 32.3836C36.4419 31.5695 36.6579 30.6391 36.7219 29.2769C36.7832 27.9116 36.7992 27.4764 36.7992 24.0001C36.7992 20.5238 36.7832 20.0875 36.7219 18.7222C36.6579 17.3595 36.4419 16.4293 36.1272 15.6155C35.7992 14.7736 35.3619 14.0594 34.6499 13.348C33.9379 12.636 33.2258 12.1986 32.3832 11.872C31.5672 11.5554 30.6365 11.3397 29.2738 11.2773C27.9085 11.2152 27.4738 11.2 23.9964 11.2H24.0004ZM23.5737 13.5062C23.3149 13.506 23.075 13.5059 22.8521 13.5063V13.5031C20.4665 13.5057 20.0089 13.5217 18.8281 13.5751C17.58 13.6324 16.9024 13.8404 16.4512 14.0164C15.8539 14.249 15.4272 14.5263 14.9792 14.9743C14.5312 15.4223 14.2533 15.849 14.0213 16.4463C13.8461 16.8975 13.6376 17.5749 13.5805 18.8229C13.5192 20.1722 13.5069 20.5754 13.5069 23.9936C13.5069 27.4118 13.5192 27.8171 13.5805 29.1664C13.6373 30.4145 13.8461 31.0918 14.0213 31.5425C14.2539 32.1401 14.5312 32.5657 14.9792 33.0137C15.4272 33.4617 15.8539 33.739 16.4512 33.971C16.9027 34.1462 17.58 34.3548 18.8281 34.4124C20.1774 34.4737 20.5825 34.487 24.0004 34.487C27.418 34.487 27.8233 34.4737 29.1727 34.4124C30.4207 34.3553 31.0986 34.1473 31.5493 33.9713C32.1469 33.7393 32.5722 33.4619 33.0202 33.0139C33.4682 32.5662 33.7461 32.1409 33.9781 31.5435C34.1533 31.0929 34.3618 30.4155 34.4189 29.1675C34.4802 27.8182 34.4935 27.4128 34.4935 23.9968C34.4935 20.5808 34.4802 20.1754 34.4189 18.8261C34.3621 17.5781 34.1533 16.9007 33.9781 16.45C33.7455 15.8527 33.4682 15.426 33.0202 14.978C32.5725 14.53 32.1466 14.2527 31.5493 14.0207C31.098 13.8455 30.4207 13.6369 29.1727 13.5799C27.8231 13.5185 27.418 13.5063 24.0004 13.5063L23.5738 13.5062H23.5737ZM29.297 17.1671C29.297 16.3188 29.985 15.6316 30.833 15.6316V15.6311C31.681 15.6311 32.369 16.3191 32.369 17.1671C32.369 18.0151 31.681 18.7031 30.833 18.7031C29.985 18.7031 29.297 18.0151 29.297 17.1671ZM24.0001 17.4263C20.3701 17.4265 17.427 20.3696 17.427 23.9997C17.427 27.6299 20.3702 30.5718 24.0004 30.5718C27.6305 30.5718 30.5727 27.6299 30.5727 23.9997C30.5727 20.3695 27.6303 17.4263 24.0001 17.4263ZM24.0004 19.7335C26.3567 19.7335 28.2671 21.6437 28.2671 24.0003C28.2671 26.3565 26.3567 28.267 24.0004 28.267C21.6438 28.267 19.7337 26.3565 19.7337 24.0003C19.7337 21.6437 21.6438 19.7335 24.0004 19.7335Z" fill="#443B39"/>
</g>
</svg>
