<svg width="22" height="22" viewBox="0 0 22 22" fill="none" xmlns="http://www.w3.org/2000/svg">
<g id="language" clip-path="url(#clip0_169_298)">
<path id="Vector" d="M10.991 1.83325C5.931 1.83325 1.8335 5.93992 1.8335 10.9999C1.8335 16.0599 5.931 20.1666 10.991 20.1666C16.0602 20.1666 20.1668 16.0599 20.1668 10.9999C20.1668 5.93992 16.0602 1.83325 10.991 1.83325ZM17.3435 7.33325H14.6393C14.346 6.18742 13.9243 5.08742 13.3743 4.06992C15.061 4.64742 16.4635 5.82075 17.3435 7.33325ZM11.0002 3.70325C11.761 4.80325 12.3568 6.02242 12.751 7.33325H9.24933C9.6435 6.02242 10.2393 4.80325 11.0002 3.70325ZM3.90516 12.8333C3.7585 12.2466 3.66683 11.6324 3.66683 10.9999C3.66683 10.3674 3.7585 9.75325 3.90516 9.16659H7.0035C6.93016 9.77159 6.87516 10.3766 6.87516 10.9999C6.87516 11.6233 6.93016 12.2283 7.0035 12.8333H3.90516ZM4.65683 14.6666H7.361C7.65433 15.8124 8.076 16.9124 8.626 17.9299C6.93933 17.3524 5.53683 16.1883 4.65683 14.6666ZM7.361 7.33325H4.65683C5.53683 5.81159 6.93933 4.64742 8.626 4.06992C8.076 5.08742 7.65433 6.18742 7.361 7.33325ZM11.0002 18.2966C10.2393 17.1966 9.6435 15.9774 9.24933 14.6666H12.751C12.3568 15.9774 11.761 17.1966 11.0002 18.2966ZM13.1452 12.8333H8.85516C8.77266 12.2283 8.7085 11.6233 8.7085 10.9999C8.7085 10.3766 8.77266 9.76242 8.85516 9.16659H13.1452C13.2277 9.76242 13.2918 10.3766 13.2918 10.9999C13.2918 11.6233 13.2277 12.2283 13.1452 12.8333ZM13.3743 17.9299C13.9243 16.9124 14.346 15.8124 14.6393 14.6666H17.3435C16.4635 16.1791 15.061 17.3524 13.3743 17.9299ZM14.9968 12.8333C15.0702 12.2283 15.1252 11.6233 15.1252 10.9999C15.1252 10.3766 15.0702 9.77159 14.9968 9.16659H18.0952C18.2418 9.75325 18.3335 10.3674 18.3335 10.9999C18.3335 11.6324 18.2418 12.2466 18.0952 12.8333H14.9968Z" fill="white"/>
</g>
<defs>
<clipPath id="clip0_169_298">
<rect width="22" height="22" fill="white"/>
</clipPath>
</defs>
</svg>
