<svg width="24" height="23" viewBox="0 0 24 23" fill="none" xmlns="http://www.w3.org/2000/svg">
<path d="M2 3.36499H3.60917C4.07837 3.36499 4.31297 3.36499 4.50498 3.44921C4.67429 3.52348 4.8197 3.64323 4.92506 3.79516C5.04454 3.96746 5.08952 4.19771 5.17949 4.6582L5.52068 6.40458M5.52068 6.40458L6.32684 10.5309C6.5217 11.5282 6.61913 12.0269 6.88283 12.387C7.11511 12.7042 7.43574 12.9459 7.80462 13.0819C8.2234 13.2363 8.72964 13.1927 9.74211 13.1055L19.4817 12.2665C20.129 12.2107 20.4526 12.1828 20.716 12.0819C21.3019 11.8572 21.7485 11.3705 21.922 10.7674C22 10.4964 22 10.1716 22 9.5219V9.5219C22 8.83617 22 8.49331 21.9157 8.21219C21.7279 7.58602 21.2459 7.09116 20.6249 6.88692C20.3461 6.79522 20.0033 6.78619 19.3178 6.76813L5.52068 6.40458Z" stroke="#5D5F5F" stroke-width="1.8" stroke-linecap="round" stroke-linejoin="round"/>
<ellipse cx="9.31694" cy="17.6944" rx="1.95122" ry="1.73691" stroke="#5D5F5F" stroke-width="1.8"/>
<ellipse cx="18.5855" cy="17.6944" rx="1.95122" ry="1.73691" stroke="#5D5F5F" stroke-width="1.8"/>
</svg>
