<svg width="20" height="20" viewBox="0 0 20 20" fill="none" xmlns="http://www.w3.org/2000/svg">
<g id="paper-plane (1) 1" clip-path="url(#clip0_1947_775)">
<path id="Vector" d="M7.2915 14.6768V18.5418C7.2915 18.8118 7.46484 19.0509 7.7215 19.1359C7.78567 19.1567 7.8515 19.1667 7.9165 19.1667C8.1115 19.1667 8.29984 19.0751 8.41984 18.9118L10.6807 15.8351L7.2915 14.6768Z" fill="white"/>
<path id="Vector_2" d="M19.7375 0.115663C19.5459 -0.0201703 19.2942 -0.0385036 19.0859 0.070663L0.33587 9.86233C0.114204 9.97816 -0.0166296 10.2148 0.00170373 10.464C0.0208704 10.714 0.186704 10.9273 0.422537 11.0082L5.63504 12.7898L16.7359 3.29816L8.14587 13.6473L16.8817 16.6332C16.9467 16.6548 17.015 16.6665 17.0834 16.6665C17.1967 16.6665 17.3092 16.6357 17.4084 16.5757C17.5667 16.479 17.6742 16.3165 17.7017 16.134L19.9934 0.71733C20.0275 0.483996 19.9292 0.25233 19.7375 0.115663Z" fill="white"/>
</g>
<defs>
<clipPath id="clip0_1947_775">
<rect width="20" height="20" fill="white"/>
</clipPath>
</defs>
</svg>
