<svg width="14" height="14" viewBox="0 0 14 14" fill="none" xmlns="http://www.w3.org/2000/svg">
<g clip-path="url(#clip0_738_587)">
<path d="M1.75 4.375V13.125C1.75 13.6062 2.14375 14 2.625 14H10.5C10.9812 14 11.375 13.6062 11.375 13.125V4.375H1.75ZM4.375 12.25H3.5V6.125H4.375V12.25ZM6.125 12.25H5.25V6.125H6.125V12.25ZM7.875 12.25H7V6.125H7.875V12.25ZM9.625 12.25H8.75V6.125H9.625V12.25Z" fill="black" fill-opacity="0.5"/>
<path d="M11.5938 1.75H8.75V0.65625C8.74931 0.482414 8.67995 0.315896 8.55702 0.192975C8.4341 0.0700536 8.26759 0.000691203 8.09375 0L5.03125 0C4.85741 0.000691203 4.6909 0.0700536 4.56797 0.192975C4.44505 0.315896 4.37569 0.482414 4.375 0.65625V1.75H1.53125C1.35734 1.75046 1.19069 1.81975 1.06772 1.94272C0.944751 2.06569 0.875462 2.23234 0.875 2.40625V3.5H12.25V2.40625C12.2495 2.23234 12.1802 2.06569 12.0573 1.94272C11.9343 1.81975 11.7677 1.75046 11.5938 1.75ZM7.875 1.75H5.25V0.886375H7.875V1.75Z" fill="black" fill-opacity="0.5"/>
</g>
<defs>
<clipPath id="clip0_738_587">
<rect width="14" height="14" fill="white"/>
</clipPath>
</defs>
</svg>
