<svg width="20" height="20" viewBox="0 0 22 20" fill="none" xmlns="http://www.w3.org/2000/svg">
<path d="M19.1975 19.6966L14.9088 15.4079C14.2345 15.9923 13.4478 16.4474 12.5487 16.7734C11.6496 17.0993 10.6944 17.2622 9.68292 17.2622C7.25542 17.2622 5.19879 16.4193 3.51302 14.7336C1.82726 13.0478 0.984375 11.0137 0.984375 8.63111C0.984375 6.24857 1.82726 4.21441 3.51302 2.52865C5.19879 0.842882 7.24418 0 9.64921 0C12.0318 0 14.0603 0.842882 15.7348 2.52865C17.4093 4.21441 18.2466 6.24857 18.2466 8.63111C18.2466 9.59762 18.0893 10.5304 17.7746 11.4295C17.4599 12.3286 16.9879 13.1714 16.3585 13.9581L20.7147 18.2468C20.9169 18.4266 21.0181 18.657 21.0181 18.938C21.0181 19.2189 20.9057 19.4718 20.6809 19.6966C20.4786 19.8989 20.2314 20 19.9392 20C19.647 20 19.3998 19.8989 19.1975 19.6966ZM9.64921 15.2393C11.4698 15.2393 13.0207 14.5931 14.3019 13.3007C15.5831 12.0083 16.2237 10.4517 16.2237 8.63111C16.2237 6.81049 15.5831 5.25397 14.3019 3.96155C13.0207 2.66913 11.4698 2.02292 9.64921 2.02292C7.8061 2.02292 6.23834 2.66913 4.94592 3.96155C3.6535 5.25397 3.00729 6.81049 3.00729 8.63111C3.00729 10.4517 3.6535 12.0083 4.94592 13.3007C6.23834 14.5931 7.8061 15.2393 9.64921 15.2393Z" fill="#5D5F5F"/>
</svg>
