<svg width="48" height="48" viewBox="0 0 48 48" fill="none" xmlns="http://www.w3.org/2000/svg">
<g id="tick 1" clip-path="url(#clip0_1804_1620)">
<path id="Vector" d="M24.0017 5.76001C13.9217 5.76001 5.76172 13.92 5.76172 24C5.76172 34.08 13.9217 42.24 24.0017 42.24C34.0817 42.24 42.2417 34.08 42.2417 24C42.2417 13.92 34.0817 5.76001 24.0017 5.76001ZM24.0017 40.32C14.9777 40.32 7.68172 33.024 7.68172 24C7.68172 14.976 14.9777 7.68001 24.0017 7.68001C33.0257 7.68001 40.3217 14.976 40.3217 24C40.3217 33.024 33.0257 40.32 24.0017 40.32ZM34.9937 17.808C34.6097 17.424 34.0337 17.424 33.6497 17.808L21.4097 30.096L16.2737 24.96C15.8897 24.576 15.2657 24.576 14.9297 24.96C14.5457 25.344 14.5457 25.968 14.9297 26.304L20.7377 32.112C20.9297 32.304 21.1697 32.4 21.4097 32.4C21.6497 32.4 21.8897 32.304 22.0817 32.112L34.9937 19.152C35.3777 18.768 35.3777 18.192 34.9937 17.808Z" fill="#BC0069"/>
<path id="Vector_2" d="M789.121 -580.8V227.52H-67.1991V-580.8H789.121ZM792.961 -584.64H-71.0391V231.36H792.961V-584.64Z" fill="#0000FF"/>
</g>
<defs>
<clipPath id="clip0_1804_1620">
<rect width="48" height="48" fill="white"/>
</clipPath>
</defs>
</svg>
