<svg width="27" height="28" viewBox="0 0 27 28" fill="none" xmlns="http://www.w3.org/2000/svg">
<g clip-path="url(#clip0_1804_1627)">
<path d="M13.4961 14.0186C17.224 14.0186 20.2461 10.9965 20.2461 7.26855C20.2461 3.54063 17.224 0.518555 13.4961 0.518555C9.76817 0.518555 6.74609 3.54063 6.74609 7.26855C6.74609 10.9965 9.76817 14.0186 13.4961 14.0186Z" fill="url(#paint0_linear_1804_1627)"/>
<path d="M7.59715 15.7043C5.25828 15.7043 3.375 17.4222 3.375 19.5552V26.6275L3.3851 26.6377H3.375C3.3748 26.7485 3.39648 26.8584 3.43876 26.9609C3.48103 27.0634 3.54307 27.1565 3.62137 27.235C3.69987 27.3133 3.79305 27.3754 3.89555 27.4177C3.99805 27.46 4.10787 27.4816 4.21875 27.4814H22.7712L22.7813 27.4713V27.4814C22.8921 27.4816 23.002 27.46 23.1045 27.4177C23.207 27.3754 23.3001 27.3133 23.3786 27.235C23.4569 27.1565 23.519 27.0634 23.5612 26.9609C23.6035 26.8584 23.6252 26.7485 23.625 26.6377V19.5552C23.625 17.4222 21.7417 15.7043 19.4029 15.7043H7.59715Z" fill="url(#paint1_linear_1804_1627)"/>
</g>
<defs>
<linearGradient id="paint0_linear_1804_1627" x1="6.74609" y1="7.26855" x2="20.2461" y2="7.26855" gradientUnits="userSpaceOnUse">
<stop stop-color="#FCD635"/>
<stop offset="1" stop-color="#F7A928"/>
</linearGradient>
<linearGradient id="paint1_linear_1804_1627" x1="3.375" y1="21.5937" x2="23.625" y2="21.5937" gradientUnits="userSpaceOnUse">
<stop stop-color="#4B5D64"/>
<stop offset="1" stop-color="#3D4155"/>
</linearGradient>
<clipPath id="clip0_1804_1627">
<rect width="27" height="27" fill="white" transform="translate(0 0.5)"/>
</clipPath>
</defs>
</svg>
